<?xml version="1.0" standalone="no"?>
<!DOCTYPE svg PUBLIC "-//W3C//DTD SVG 20010904//EN"
 "http://www.w3.org/TR/2001/REC-SVG-20010904/DTD/svg10.dtd">
<svg version="1.0" xmlns="http://www.w3.org/2000/svg"
 width="1024.000000pt" height="1024.000000pt" viewBox="0 0 1024.000000 1024.000000"
 preserveAspectRatio="xMidYMid meet">
<metadata>
Created by potrace 1.11, written by Peter Selinger 2001-2013
</metadata>
<g transform="translate(0.000000,1024.000000) scale(0.100000,-0.100000)"
fill="#000000" stroke="none">
<path d="M5096 10033 c-66 -295 -201 -663 -351 -963 -344 -688 -782 -1211
-1820 -2176 -873 -811 -1157 -1120 -1400 -1519 -403 -663 -478 -1387 -206
-1989 135 -298 409 -602 711 -789 456 -281 1102 -322 1633 -101 191 79 420
219 562 342 301 261 538 572 726 952 72 147 79 140 79 -75 0 -622 -96 -1186
-279 -1644 -75 -187 -207 -421 -331 -586 -90 -120 -284 -323 -395 -412 -184
-149 -452 -305 -670 -391 -368 -146 -815 -238 -1248 -259 -75 -3 -144 -11
-151 -17 -10 -8 -66 -262 -66 -300 0 -3 1454 -6 3231 -6 l3231 0 -5 28 c-3 15
-16 84 -29 154 l-23 128 -30 4 c-16 3 -84 8 -150 11 -632 30 -1254 211 -1684
491 -270 177 -511 414 -689 679 -350 522 -532 1246 -532 2118 0 146 2 177 14
177 8 0 50 -69 100 -166 153 -295 328 -536 542 -745 134 -131 169 -161 264
-230 532 -387 1160 -495 1755 -302 243 79 463 219 670 427 355 356 525 767
525 1271 0 602 -250 1183 -754 1755 -139 157 -537 555 -796 795 -1041 965
-1399 1351 -1755 1890 -292 441 -524 973 -631 1448 -10 42 -21 77 -24 77 -3 0
-14 -35 -24 -77z"/>
</g>
</svg>
